
<svg xmlns="http://www.w3.org/2000/svg" version="1.1" xmlns:xlink="http://www.w3.org/1999/xlink" preserveAspectRatio="none" x="0px" y="0px" width="196px" height="25px" viewBox="0 0 196 25">
<defs>
<g id="Layer0_0_FILL">
<path fill="#FFFFFF" stroke="none" d="
M 196 25
L 196 0 0 0 0 25 196 25
M 183.85 8.25
L 183.85 9.85 180.75 9.85 180.75 11.4 183.85 11.4 183.85 12.95 180.75 12.95 180.75 15.25 183.85 15.25 183.85 16.85 179.15 16.85 179.15 8.25 183.85 8.25
M 175.85 8.5
Q 176.45 8.75 176.85 9.35 177.2 9.9 177.2 10.75 177.2 11.6 176.8 12.15 176.4 12.75 175.6 13
L 177.6 16.85 175.8 16.85 173.9 13.2 173.75 13.2 173.75 16.85 172.1 16.85 172.1 8.25 173.85 8.25
Q 175.25 8.25 175.85 8.5
M 168.6 9
Q 168.7796875 9.1732421875 168.95 9.35 170.25 10.65 170.25 12.55 170.25 14.45 168.95 15.75 168.7796875 15.9203125 168.6 16.05 167.4076171875 17.05 165.8 17.05 163.85 17.05 162.6 15.75 161.3 14.4 161.3 12.55 161.3 11.3 161.9 10.25 162.5 9.25 163.55 8.6 164.6 8 165.8 8 167.4078125 8 168.6 9
M 157.25 8.25
L 158.85 8.25 160.3 16.85 158.7 16.85 157.75 11.4 155.95 16.85 154.5 16.85 152.7 11.4 151.75 16.85 150.15 16.85 151.6 8.25 153.2 8.25 155.2 14.25 157.25 8.25
M 143.45 8.25
L 145.1 8.25 145.1 16.85 143.5 16.85 139.85 11.2 139.85 16.85 138.2 16.85 138.2 8.25 139.75 8.25 143.45 13.9 143.45 8.25
M 135.9 9.35
Q 136.25 9.9 136.25 10.75 136.25 11.6 135.85 12.15 135.45 12.75 134.65 13
L 136.65 16.85 134.85 16.85 132.95 13.2 132.8 13.2 132.8 16.85 131.15 16.85 131.15 8.25 132.9 8.25
Q 134.3 8.25 134.9 8.5 135.5 8.75 135.9 9.35
M 124.6 8.25
L 126.3 8.25 129.6 16.85 127.9 16.85 127.2 15.05 123.7 15.05 123 16.85 121.3 16.85 124.6 8.25
M 115.6 8.25
L 120.3 8.25 120.3 9.85 117.2 9.85 117.2 11.4 120.3 11.4 120.3 12.95 117.2 12.95 117.2 15.25 120.3 15.25 120.3 16.85 115.6 16.85 115.6 8.25
M 111.8 15.3
L 114.15 15.3 114.15 16.85 110.15 16.85 110.15 8.25 111.8 8.25 111.8 15.3
M 97 1
L 97 24 1 24 1 1 97 1
M 13.8 8.25
L 12.15 8.25 12.15 16.85 16.15 16.85 16.15 15.3 13.8 15.3 13.8 8.25
M 28.3 8.25
L 26.6 8.25 23.3 16.85 25 16.85 25.7 15.05 29.2 15.05 29.9 16.85 31.6 16.85 28.3 8.25
M 28.6 13.5
L 26.3 13.5 27.45 10.5 28.6 13.5
M 22.3 9.85
L 22.3 8.25 17.6 8.25 17.6 16.85 22.3 16.85 22.3 15.25 19.2 15.25 19.2 12.95 22.3 12.95 22.3 11.4 19.2 11.4 19.2 9.85 22.3 9.85
M 34.9 8.25
L 33.15 8.25 33.15 16.85 34.8 16.85 34.8 13.2 34.95 13.2 36.85 16.85 38.65 16.85 36.65 13
Q 37.45 12.75 37.85 12.15 38.25 11.6 38.25 10.75 38.25 9.9 37.9 9.35 37.5 8.75 36.9 8.5 36.3 8.25 34.9 8.25
M 34.8 9.85
L 35.25 9.85
Q 35.9 9.85 36.15 9.9 36.4 10 36.55 10.2 36.65 10.45 36.65 10.7 36.65 11.2 36.4 11.4 36.1 11.6 35.3 11.6
L 34.8 11.6 34.8 9.85
M 47.1 8.25
L 45.45 8.25 45.45 13.9 41.75 8.25 40.2 8.25 40.2 16.85 41.85 16.85 41.85 11.2 45.5 16.85 47.1 16.85 47.1 8.25
M 62.3 16.85
L 60.85 8.25 59.25 8.25 57.2 14.25 55.2 8.25 53.6 8.25 52.15 16.85 53.75 16.85 54.7 11.4 56.5 16.85 57.95 16.85 59.75 11.4 60.7 16.85 62.3 16.85
M 65.55 8.6
Q 64.5 9.25 63.9 10.25 63.3 11.3 63.3 12.55 63.3 14.4 64.6 15.75 65.85 17.05 67.8 17.05 69.65 17.05 70.95 15.75 72.25 14.45 72.25 12.55 72.25 10.65 70.95 9.35 69.65 8 67.8 8 66.6 8 65.55 8.6
M 65.75 10.45
Q 66.6 9.6 67.8 9.6 68.95 9.6 69.8 10.5 70.65 11.3 70.65 12.55 70.65 13.8 69.8 14.65 69 15.5 67.8 15.5 66.8 15.5 66 14.85 64.95 14 64.95 12.55 64.95 11.3 65.75 10.45
M 75.85 8.25
L 74.1 8.25 74.1 16.85 75.75 16.85 75.75 13.2 75.9 13.2 77.8 16.85 79.6 16.85 77.6 13
Q 78.4 12.75 78.8 12.15 79.2 11.6 79.2 10.75 79.2 9.9 78.85 9.35 78.45 8.75 77.85 8.5 77.25 8.25 75.85 8.25
M 75.75 11.6
L 75.75 9.85 76.2 9.85
Q 76.85 9.85 77.1 9.9 77.35 10 77.5 10.2 77.6 10.45 77.6 10.7 77.6 11.2 77.35 11.4 77.05 11.6 76.25 11.6
L 75.75 11.6
M 85.85 11.4
L 82.75 11.4 82.75 9.85 85.85 9.85 85.85 8.25 81.15 8.25 81.15 16.85 85.85 16.85 85.85 15.25 82.75 15.25 82.75 12.95 85.85 12.95 85.85 11.4
M 124.3 13.5
L 126.6 13.5 125.45 10.5 124.3 13.5
M 132.8 9.85
L 132.8 11.6 133.3 11.6
Q 134.1 11.6 134.4 11.4 134.65 11.2 134.65 10.7 134.65 10.45 134.55 10.2 134.4 10 134.15 9.9 133.9 9.85 133.25 9.85
L 132.8 9.85
M 168.6 11.95
Q 168.4443359375 11.1064453125 167.8 10.5 166.95 9.6 165.8 9.6 164.6 9.6 163.75 10.45 162.95 11.3 162.95 12.55 162.95 14 164 14.85 164.8 15.5 165.8 15.5 167 15.5 167.8 14.65 168.4443359375 14.0056640625 168.6 13.1 168.65 12.8525390625 168.65 12.55 168.65 12.2474609375 168.6 11.95
M 174.2 9.85
L 173.75 9.85 173.75 11.6 174.25 11.6
Q 175.05 11.6 175.35 11.4 175.6 11.2 175.6 10.7 175.6 10.45 175.5 10.2 175.35 10 175.1 9.9 174.85 9.85 174.2 9.85 Z"/>
</g>
</defs>

<g transform="matrix( 1, 0, 0, 1, 0,0) ">
<use xlink:href="#Layer0_0_FILL"/>
</g>
</svg>
