
<svg xmlns="http://www.w3.org/2000/svg" version="1.1" xmlns:xlink="http://www.w3.org/1999/xlink" preserveAspectRatio="none" x="0px" y="0px" width="5592px" height="2108px" viewBox="0 0 5592 2108">
<defs>
<g id="Layer0_0_FILL">
<path fill="#FFFFFF" stroke="none" d="
M 1702.2 1900.85
Q 1734.3 1898.2 1735.2 1926.85
L 1735.2 2065.15
Q 1734.3 2093.8 1702.2 2091.15
L 1702.2 2101.35 1894.75 2101.35 1898.15 2051.95 1887.2 2051.95
Q 1888.8 2084.2 1855.2 2086.15
L 1811.7 2086.15
Q 1782.75 2088.55 1779.2 2065.45
L 1779.85 1997.4 1808.7 1997.4
Q 1842.7 1996 1840.1 2031.2
L 1849.7 2030.95 1849.7 1947.5 1840.15 1947.95
Q 1842.45 1980.9 1814.2 1981.4
L 1780 1981.4 1780.65 1905.4 1848.2 1905.85
Q 1871.65 1908.5 1875.2 1939.4
L 1885.55 1939.4 1883.15 1889.35 1702.2 1889.35 1702.2 1900.85
M 1620.4 1900.85
L 1620.4 1889.35 1508.7 1889.35 1508.7 1900.85
Q 1540.8 1898.2 1541.7 1926.85
L 1541.7 1980.85 1433.4 1980.85 1433.4 1926.85
Q 1434.3 1898.2 1466.4 1900.85
L 1466.4 1889.35 1354.7 1889.35 1354.7 1900.85
Q 1386.8 1898.2 1387.7 1926.85
L 1387.7 2065.15
Q 1386.8 2093.8 1354.7 2091.15
L 1354.7 2101.35 1466.4 2101.35 1466.4 2091.15
Q 1434.3 2093.8 1433.4 2065.15
L 1433.4 1996.85 1541.7 1996.85 1541.7 2065.15
Q 1540.8 2093.8 1508.7 2091.15
L 1508.7 2101.35 1620.4 2101.35 1620.4 2091.15
Q 1588.3 2093.8 1587.4 2065.15
L 1587.4 1926.85
Q 1588.3 1898.2 1620.4 1900.85
M 1977.2 1889.35
L 1977.2 1900.85
Q 2009.3 1898.2 2010.2 1926.85
L 2010.2 2065.15
Q 2009.3 2093.8 1977.2 2091.15
L 1977.2 2101.35 2088 2101.35 2088 2091.45
Q 2058.2 2094.7 2055.1 2067.3
L 2054.95 2008.9 2065.15 2008.9 2126.8 2101.35 2204.05 2101.35 2204.05 2091.65
Q 2178.75 2089.85 2155.05 2064.15
L 2104.35 2008.9 2106.65 2008.9
Q 2144.65 2003.8 2161.5 1973.4 2170.1 1952.9 2163.25 1931.6 2150.65 1893.8 2093 1889.35
L 1977.2 1889.35
M 2054.6 1905.55
L 2079.15 1905.55
Q 2116.4 1912.2 2118.95 1947.6 2119.1 1988.85 2076.9 1993.15
L 2054.9 1993.15 2054.6 1905.55
M 2424.7 1889.35
L 2424.7 1900.85
Q 2456.8 1898.2 2457.7 1926.85
L 2457.7 2065.15
Q 2456.8 2093.8 2424.7 2091.15
L 2424.7 2101.35 2536.4 2101.35 2536.4 2091.15
Q 2504.3 2093.8 2503.4 2065.15
L 2503.4 1926.85
Q 2504.3 1898.2 2536.4 1900.85
L 2536.4 1889.35 2424.7 1889.35
M 380.7 1889.35
L 380.7 1900.85
Q 412.8 1898.2 413.7 1926.85
L 413.7 2065.15
Q 412.8 2093.8 380.7 2091.15
L 380.7 2101.35 581.7 2101.35 584.7 2051.95 574.7 2051.95
Q 567.3 2084.2 542.7 2085.65 543.15 2086.6 537.7 2086.15
L 490.2 2086.15
Q 461.25 2088.55 457.7 2065.45
L 457.7 1926.85
Q 458.6 1898.25 490.55 1900.85
L 491.7 1889.35 380.7 1889.35
M 659.7 1889.35
L 659.7 1900.85
Q 691.8 1898.2 692.7 1926.85
L 692.7 2065.15
Q 691.8 2093.8 659.7 2091.15
L 659.7 2101.35 852.25 2101.35 855.65 2051.95 844.7 2051.95
Q 846.3 2084.2 812.7 2086.15
L 769.2 2086.15
Q 740.25 2088.55 736.7 2065.45
L 737.35 1997.4 766.2 1997.4
Q 800.2 1996 797.6 2031.2
L 807.2 2030.95 807.2 1947.5 797.65 1947.95
Q 799.95 1980.9 771.7 1981.4
L 737.5 1981.4 738.15 1905.4 805.7 1905.85
Q 829.15 1908.5 832.7 1939.4
L 843.05 1939.4 840.65 1889.35 659.7 1889.35
M 1119.9 1940.1
L 1130.65 1939.85 1127.3 1889.35 912.8 1889.35 909.45 1939.85 920.2 1940.1
Q 923.05 1905.45 956.5 1906.55
L 997.45 1906.55 997.95 2065.15
Q 997.05 2093.8 964.95 2091.15
L 964.95 2101.35 1075.15 2101.35 1075.15 2091.15
Q 1043.05 2093.8 1042.15 2065.15
L 1042.65 1906.55 1083.6 1906.55
Q 1117.05 1905.45 1119.9 1940.1
M 779.25 1051.5
L 698.65 1051.5 463.65 1600.75
Q 550.45 1518.4 626.55 1522.2 709.15 1527 762.75 1568.25 848.75 1621.15 941 1592.3 1048.15 1546.95 1067.2 1432.05 1030.75 1474.5 971.9 1501.65
L 779.25 1051.5
M 864.35 1517.05
Q 826.7 1512.2 771.75 1476.1 717.8 1438.7 641.7 1441.55
L 736.85 1219.1 864.35 1517.05
M 1289.4 1051.5
L 1177.45 1051.5 1177.35 1597.5 1289.3 1597.5 1289.4 1051.5
M 268.6 1155.7
Q 294.45 1167 309.35 1181.95
L 369.2 1098.15
Q 299.05 1044.2 209.1 1043.65 87.1 1048.1 41.05 1133.65 0.7 1228.1 66.55 1297.2 88.3 1316.65 120.25 1333.75 160.95 1352.95 205.1 1369.2 283.6 1400.65 272.1 1452.75 261.85 1498.1 208.1 1503.25 164.95 1506.9 118.1 1480.75 89.1 1461.75 73.55 1442.75
L 0 1519.15
Q 86.35 1601.9 197.1 1603.8 317.35 1602.2 368.65 1508.25 404.5 1426.75 360.65 1353.25 328.1 1307.95 256.6 1278.2
L 193.1 1252.2
Q 149.95 1234.2 140.6 1212.2 128.35 1169.8 177.1 1150.7 223.75 1135.9 268.6 1155.7
M 2519.05 1151.5
L 2519.05 1051.5 2123 1051.5 2123 1151.5 2264.95 1151.5 2264.85 1597.5 2376.8 1597.5 2376.9 1151.5 2519.05 1151.5
M 1573.6 1051.5
L 1495.45 1051.5 1495.35 1597.5 1607.35 1597.5 1607.35 1254 1900.85 1597.5 1978.35 1597.5 1978.4 1051.5 1866.45 1051.5 1866.4 1394.2 1573.6 1051.5
M 3922.2 1889.35
L 3922.2 1900.85
Q 3954.3 1898.2 3955.2 1926.85
L 3955.2 2065.15
Q 3954.3 2093.8 3922.2 2091.15
L 3922.2 2101.35 4114.75 2101.35 4118.15 2051.95 4107.2 2051.95
Q 4108.8 2084.2 4075.2 2086.15
L 4031.7 2086.15
Q 4002.75 2088.55 3999.2 2065.45
L 3999.85 1997.4 4028.7 1997.4
Q 4062.7 1996 4060.1 2031.2
L 4069.7 2030.95 4069.7 1947.5 4060.15 1947.95
Q 4062.45 1980.9 4034.2 1981.4
L 4000 1981.4 4000.65 1905.4 4068.2 1905.85
Q 4091.65 1908.5 4095.2 1939.4
L 4105.55 1939.4 4103.15 1889.35 3922.2 1889.35
M 4843.2 1971.35
Q 4818.65 1889.8 4728.2 1883.85 4637.15 1891.35 4614.8 1969.1 4604.35 2007.5 4624.65 2047.85 4659.6 2106.65 4731.7 2107.9 4806.05 2097.4 4828.75 2053.9 4851.45 2010.35 4843.2 1971.35
M 4697.9 1909.35
Q 4727.25 1893.45 4760.2 1909.35 4798.3 1938.25 4798.2 1994.9 4798.35 2053.8 4761.2 2081.9 4728.7 2099.65 4696.2 2081.9 4661.3 2057.05 4658.7 1999.9 4660.65 1933 4697.9 1909.35
M 4571.1 1900.9
L 4571.1 1889.35 4485.6 1889.35 4485.6 1900.4
Q 4518.7 1901.05 4509.1 1918.4
L 4465.1 1985.7 4465.1 1986.85 4420.1 1918.4
Q 4414.05 1901.95 4444.1 1899.9
L 4444.1 1889.35 4324.1 1889.35 4324.1 1900.4
Q 4360.25 1900.75 4372.6 1927.9
L 4426.6 2008 4426.6 2066.4
Q 4425.85 2094.4 4392.6 2091.45
L 4392.6 2101.35 4502.6 2101.35 4502.6 2092.3
Q 4471.55 2095.25 4469.1 2065.55 4468.7 2060.45 4469.1 2054.4
L 4469.1 2007.4 4526.15 1922.4
Q 4541.9 1898.95 4571.1 1900.9
M 4903.2 1899.9
Q 4936 1898.65 4937.7 1922.45
L 4937.7 2024.4
Q 4938.6 2065.1 4966.25 2089.45 4992.25 2108.65 5024.25 2107.95 5068.7 2105.8 5090.75 2076.4 5106.65 2055 5107.25 2027.9
L 5107.25 1928.9
Q 5106 1898.6 5140.8 1900.9
L 5140.8 1889.35 5055.2 1889.35 5055.2 1899.9
Q 5087.2 1898 5088.25 1928.9
L 5088.25 2028.5
Q 5087.45 2062.1 5060.75 2080.9 5035.9 2092.35 5012.75 2080.9 4983.85 2064.8 4982.2 2029.4
L 4982.2 1923.4
Q 4984.6 1897.3 5016.2 1900.4
L 5016.2 1889.35 4903.2 1889.35 4903.2 1899.9
M 4987.65 1600.75
Q 4989.4 1599.1 4991.1 1597.5 5075.95 1518.5 5150.55 1522.2 5233.15 1527 5286.75 1568.25 5321.15 1589.4 5356.6 1597.5 5400.3 1607.45 5445.5 1597.5 5455.2 1595.35 5465 1592.3 5572.15 1546.95 5591.2 1432.05 5554.75 1474.5 5495.9 1501.65
L 5303.25 1051.5 5222.65 1051.5 4987.65 1600.75
M 5260.85 1219.1
L 5388.35 1517.05
Q 5350.7 1512.2 5295.75 1476.1 5241.8 1438.7 5165.7 1441.55
L 5260.85 1219.1
M 2618.85 1889.35
L 2618.9 1900.65
Q 2654.25 1898.85 2651.85 1926.25
L 2652.35 2065.75
Q 2654.25 2092.6 2619.25 2092.25
L 2619.3 2101.35 2701.85 2101.35 2701.85 2091.75
Q 2670.5 2094 2668.85 2064.75
L 2668.85 1934.35 2814.35 2107.25 2823.4 2107.25 2823.85 1929.25
Q 2823 1898.2 2857.35 1900.75
L 2857.35 1889.35 2773.35 1889.35 2773.6 1900.45
Q 2811.8 1898.15 2807.35 1931.75
L 2807.75 2029.95 2690.2 1889.35 2618.85 1889.35
M 2952.25 1900.85
Q 2923.9 1930.7 2942.75 1968.35 2957.15 1991.1 2996.25 2010.35 3030.7 2025.2 3039.75 2041.85 3048 2060.5 3039.75 2075.85 3030.75 2092.75 3005.75 2091.9 2957.7 2084.55 2943.4 2029.85
L 2932.75 2029.85 2932.75 2107.85 2942.75 2107.85
Q 2943.9 2098.5 2953.75 2090.9 2979.35 2104.05 3001.25 2107.9 3030.35 2109.05 3048.75 2096.4 3076.15 2077.85 3078.3 2047.35 3079.2 2017.35 3054.75 1996.35 3039.7 1982.65 3016.75 1972.85 2984.15 1959.05 2974.25 1940.35 2966.35 1920.2 2981.75 1905.85 2997.1 1893.3 3023.25 1905.85 3047.1 1920.55 3049.6 1959.85
L 3061.15 1959.85 3060.75 1882.35 3051.2 1882.35
Q 3047.65 1894.25 3040.25 1898.35 2993.8 1868.65 2952.25 1900.85
M 3431.7 1889.35
L 3431.7 1900.85
Q 3463.8 1898.2 3464.7 1926.85
L 3464.7 2065.15
Q 3463.8 2093.8 3431.7 2091.15
L 3431.7 2101.35 3543.4 2101.35 3543.4 2091.15
Q 3511.3 2093.8 3510.4 2065.15
L 3510.4 1926.85
Q 3511.3 1898.2 3543.4 1900.85
L 3543.4 1889.35 3431.7 1889.35
M 3349.5 1973.4
Q 3358.1 1952.9 3351.25 1931.6 3338.65 1893.8 3281 1889.35
L 3165.2 1889.35 3165.2 1900.85
Q 3197.3 1898.2 3198.2 1926.85
L 3198.2 2065.15
Q 3197.3 2093.8 3165.2 2091.15
L 3165.2 2101.35 3276 2101.35 3276 2091.45
Q 3246.2 2094.7 3243.1 2067.3
L 3242.95 2008.9 3294.65 2008.9
Q 3332.65 2003.8 3349.5 1973.4
M 3242.6 1905.55
L 3267.15 1905.55
Q 3304.4 1912.2 3306.95 1947.6 3307.1 1988.85 3264.9 1993.15
L 3242.9 1993.15 3242.6 1905.55
M 3626.95 1889.35
L 3626.95 1900.85
Q 3659.05 1898.2 3659.95 1926.85
L 3659.95 2065.15
Q 3659.05 2093.8 3626.95 2091.15
L 3626.95 2101.35 3737.75 2101.35 3737.75 2091.45
Q 3707.95 2094.7 3704.85 2067.3
L 3704.7 2008.9 3714.9 2008.9 3776.55 2101.35 3853.8 2101.35 3853.8 2091.65
Q 3828.5 2089.85 3804.8 2064.15
L 3754.1 2008.9 3756.4 2008.9
Q 3794.4 2003.8 3811.25 1973.4 3819.85 1952.9 3813 1931.6 3800.4 1893.8 3742.75 1889.35
L 3626.95 1889.35
M 3728.9 1905.55
Q 3766.15 1912.2 3768.7 1947.6 3768.85 1988.85 3726.65 1993.15
L 3704.65 1993.15 3704.35 1905.55 3728.9 1905.55
M 3085.45 1051.5
L 2973.45 1051.5 2973.4 1597.5 3311.45 1597.5 3311.45 1496.5 3085.35 1496.5 3085.45 1051.5
M 2880.65 190
L 2785.05 190 2719.3 344.55 2572.65 0 2469.05 0 2130.75 794.9
Q 2239.2 658 2401.1 655 2505 661.45 2585.4 707.05 2773.9 803.55 2859.75 797.2 3126.7 775.2 3184.25 518.8 3127.65 590.95 3066.05 626.95
L 2880.65 190
M 2851.9 656.1
L 2774.05 473.2 2831.95 335.4 2969.15 656.75
Q 2910.5 671.4 2851.9 656.1
M 2370.2 549
L 2520.85 194.95 2699.25 614.15
Q 2557.95 495.35 2370.2 549
M 4842.95 1051.5
L 4730.95 1051.5 4730.9 1597.5 4842.8 1597.5 4842.95 1051.5
M 3927.5 1374.25
L 3927.95 1369.25 3927.95 1051.55 3815.95 1051.55 3815.9 1374.25
Q 3817.2 1444.65 3774.35 1477.1 3745.2 1502.95 3692 1503.7 3642.2 1502.95 3613.05 1477.1 3570.2 1444.65 3571.8 1374.25
L 3571.95 1051.55 3459.95 1051.55 3459.9 1374.25
Q 3461.55 1518.15 3578.85 1580.3 3631.7 1604.4 3691.9 1604.4 3692.8 1604.4 3693.75 1604.4 3694.6 1604.4 3695.5 1604.4 3755.7 1604.4 3808.55 1580.3 3925.85 1518.15 3927.5 1374.25
M 4312.1 1046.45
Q 4311.55 1046.5 4311 1046.6 4280.75 1050.6 4253.05 1060.5 4153.35 1093.85 4102.2 1184.75 4096.525 1195.525 4090.85 1206.3 4088.05 1212.05 4085.6 1217.95
L 4085.2 1218.95
Q 4085.1 1219.2 4084.95 1219.5 4065.3 1267.45 4065.3 1323.3 4065.3 1356.7 4072.35 1387.25 4072.4 1387.55 4072.5 1387.9 4079.85 1419.55 4094.75 1448.15 4147.6 1559.25 4265.6 1590.25 4307 1602.8 4353.8 1602.8 4363.9 1602.8 4373.8 1602.2 4374.05 1602.2 4374.3 1602.2 4500.75 1598.1 4583.35 1497.25
L 4506.3 1427.05
Q 4441.5 1505.35 4357.3 1503 4355.05 1503.05 4352.8 1503.05 4280.55 1503.05 4229.4 1450.4 4178.25 1397.75 4178.25 1323.3 4178.25 1248.9 4229.4 1196.2 4280.55 1143.6 4352.8 1143.6 4425.15 1143.6 4476.2 1196.2 4478.4 1198.45 4480.5 1200.75
L 4554.9 1122.9
Q 4471.25 1043.8 4353.8 1043.8 4332.4 1043.8 4312.1 1046.45 Z"/>
</g>
</defs>

<g transform="matrix( 1, 0, 0, 1, 0,0) ">
<use xlink:href="#Layer0_0_FILL"/>
</g>
</svg>
